<svg id="Layer_1" data-name="Layer 1" xmlns="http://www.w3.org/2000/svg" viewBox="0 0 1023.39 173.02"><defs><style>.cls-1{fill:#00263d;}.cls-2{fill:#58c8e6;}</style></defs><path class="cls-1" d="M209.09,97.32l-5.65,11c-1.25,2.58-5.85.77-4.6-2l21-41.46a2.59,2.59,0,0,1,4.53,0l21,41.25c1.82,3-3.34,4.74-4.67,2l-5.43-10.8ZM222.19,71l-11,22h21.95Z" transform="translate(0 0)"/><path class="cls-1" d="M251.73,109c-1.88,0-2.65-.91-2.65-2.58v-40c0-3.27,5.16-3.27,5.16,0v38H280.3c3.56,0,3.56,4.6,0,4.6Z" transform="translate(0 0)"/><path class="cls-1" d="M316.26,107.29a26.18,26.18,0,0,1-10.45,2.51c-11.92,0-22.65-9.76-22.65-23.56A22.2,22.2,0,0,1,302,64.08c8.16-1.11,15.26.91,20.77,6.69,2.09,2.37-1.67,5.23-3.62,3.14-4.74-5-10.25-5.79-16.38-5.09-8.57,1.32-14.63,7.39-14.63,17.49C288.18,96.9,296.33,105,306,105a18.55,18.55,0,0,0,8.08-2,17.78,17.78,0,0,0,5.71-4.67c1.61-2.37,5.86.21,4.05,2.79A20,20,0,0,1,316.26,107.29Z" transform="translate(0 0)"/><path class="cls-1" d="M335.77,85.41h25.64v-19c0-3.34,5.09-3.34,5.09,0V107a2.55,2.55,0,1,1-5.09,0V89.8H335.77V107c0,3.62-5,3.2-5,0V66.38c0-3.41,5-3.2,5,0Z" transform="translate(0 0)"/><path class="cls-1" d="M378.62,104.43h27.53c2.93,0,3.34,4.6,0,4.6H376.81a3,3,0,0,1-3.2-3.07V67.71a3,3,0,0,1,3.2-3h29.41c3,0,2.86,4.46-.07,4.46H378.62V84.85h26.21c2.78,0,2.92,4.46,0,4.46H378.62Z" transform="translate(0 0)"/><path class="cls-1" d="M453.39,65.75c1.61-2.5,4.81-1.67,4.81,1.26v40.14c0,3.34-5.08,3.34-5.08,0V75.44L438.9,97.67a2.67,2.67,0,0,1-4.81,0L419.88,75.51v31.64c0,3.34-5.09,3.34-5.09,0V67c0-3,3.34-3.76,4.74-1.26l17,26.49Z" transform="translate(0 0)"/><path class="cls-1" d="M466.56,65.62c0-3.49,5.23-3.42,5.23,0v41.67c0,3.2-5.23,3.34-5.23,0Z" transform="translate(0 0)"/><path class="cls-1" d="M480.29,98c1.81,5.78,9.55,7,15.12,7,5.92,0,15.12-1.81,15.12-8.85,0-6.07-7.31-6.55-15-7.18-9.62-.77-19.93-1.67-19.93-12.06,0-9.19,10.59-13.31,19.09-13.31,7.32,0,16.45,1.75,19.38,9.69,1,2.79-3.7,4-4.74,1.67-2.09-5.29-9.55-6.2-14.57-6.2-4.67,0-13.72,1.88-13.72,8.22,0,6.07,7,6.69,15.05,7.32,9.54.84,19.79,1.32,19.79,11.78,0,10.66-11.92,13.94-20.49,13.94-7.11,0-18-2.44-20.28-10.81C474.3,96.21,479.73,95.16,480.29,98Z" transform="translate(0 0)"/><path class="cls-1" d="M551.44,64.64a2.41,2.41,0,1,1,0,4.81H535.9c0,12.54.07,25.29.07,37.84a2.58,2.58,0,0,1-2.65,2.58,2.47,2.47,0,0,1-2.51-2.58V69.45H515.34a2.41,2.41,0,1,1,0-4.81Z" transform="translate(0 0)"/><path class="cls-1" d="M576,96.56l-6.2,12.33a1.15,1.15,0,0,1-2-1.11l22.16-43.7a1.15,1.15,0,0,1,1.05-.62,1,1,0,0,1,1,.62l22.23,43.7a1.15,1.15,0,0,1-2,1.11l-6.2-12.33Zm15-29.69L577,94.47h27.8Z" transform="translate(0 0)"/><path class="cls-1" d="M647,107.29a22.59,22.59,0,0,1-33-21.12c.28-11.77,7.8-20.42,18.74-22.16,8.23-1,14.78.28,20.77,6.69,1,1.26-.63,2.51-1.67,1.4-5.65-6.14-11.15-6.69-18.75-5.79-9.82,1.53-16.58,8.64-16.86,19.93a20.46,20.46,0,0,0,29.75,19,19.68,19.68,0,0,0,6.56-5.37,1.13,1.13,0,1,1,1.81,1.33A19.4,19.4,0,0,1,647,107.29Z" transform="translate(0 0)"/><path class="cls-1" d="M690,107.29a22.6,22.6,0,0,1-33-21.12c.28-11.77,7.81-20.42,18.75-22.16,8.22-1,14.77.28,20.76,6.69,1,1.26-.62,2.51-1.67,1.4-5.64-6.14-11.15-6.69-18.74-5.79-9.83,1.53-16.59,8.64-16.87,19.93a20.47,20.47,0,0,0,29.76,19,19.54,19.54,0,0,0,6.55-5.37,1.13,1.13,0,1,1,1.81,1.33A19.32,19.32,0,0,1,690,107.29Z" transform="translate(0 0)"/><path class="cls-1" d="M705.08,106.8h30.81a1.12,1.12,0,0,1,0,2.23H704.67a1.84,1.84,0,0,1-1.89-1.88V66.52a1.82,1.82,0,0,1,1.89-1.81H736a1,1,0,1,1-.07,2.09H705.08V86h29.41a1,1,0,1,1,0,2.09H705.08Z" transform="translate(0 0)"/><path class="cls-1" d="M745.15,109c-.9,0-1.25-.49-1.25-1.32V65.55a1.19,1.19,0,1,1,2.37,0v41.32h29.27a1.08,1.08,0,1,1,0,2.16Z" transform="translate(0 0)"/><path class="cls-1" d="M782.78,106.8h30.8a1.12,1.12,0,0,1,0,2.23H782.36a1.83,1.83,0,0,1-1.88-1.88V66.52a1.82,1.82,0,0,1,1.88-1.81h31.29a1,1,0,1,1-.07,2.09h-30.8V86h29.41a1,1,0,1,1,0,2.09H782.78Z" transform="translate(0 0)"/><path class="cls-1" d="M823.82,92.65v15.4a1.15,1.15,0,0,1-2.3.07V65.82a1.14,1.14,0,0,1,1.19-1.18h17.56C852,64.64,858,71.26,858,79.13c0,7.53-5,12.83-15.19,13.59l14.42,14.85c1.12,1.18-.35,2.71-1.46,1.6L840.13,92.65Zm0-2h16.52c10.8,0,15.47-5.15,15.33-11.5-.07-6.83-5.79-12.33-15.33-12.33H823.82Z" transform="translate(0 0)"/><path class="cls-1" d="M866.61,96.56l-6.21,12.33a1.15,1.15,0,0,1-2-1.11l22.16-43.7a1.15,1.15,0,0,1,1.05-.62,1,1,0,0,1,1,.62l22.22,43.7a1.15,1.15,0,0,1-2,1.11l-6.2-12.33Zm15-29.69-13.94,27.6h27.81Z" transform="translate(0 0)"/><path class="cls-1" d="M936.15,64.64c1.67,0,1.67,2.09,0,2.09h-18l.07,41.25a1.26,1.26,0,0,1-1.25,1.33,1.22,1.22,0,0,1-1.19-1.33V66.73h-18c-1.67,0-1.67-2.09,0-2.09Z" transform="translate(0 0)"/><path class="cls-1" d="M935.8,86.1c.35-10.8,7-20.35,18-22.09a27.13,27.13,0,0,1,7.53,0c11,1.74,18.53,11.29,18.81,22.09.42,13.45-10,23.77-22.16,23.77S935.45,99.55,935.8,86.1Zm2.37.07c-.35,12,9,21.54,19.79,21.54s20.21-9.55,19.86-21.54c-.28-9.75-7-18.39-16.86-19.93a22.35,22.35,0,0,0-6.83,0C944.3,67.78,938.45,76.42,938.17,86.17Z" transform="translate(0 0)"/><path class="cls-1" d="M989.18,92.65v15.4a1.15,1.15,0,0,1-2.3.07V65.82a1.13,1.13,0,0,1,1.18-1.18h17.56c11.78,0,17.77,6.62,17.77,14.49,0,7.53-5,12.83-15.19,13.59l14.43,14.85c1.11,1.18-.35,2.71-1.46,1.6l-15.68-16.52Zm0-2h16.51c10.81,0,15.48-5.15,15.34-11.5-.07-6.83-5.79-12.33-15.34-12.33H989.18Z" transform="translate(0 0)"/><path class="cls-2" d="M12.31,173h9.16a3.28,3.28,0,0,0,2.77-1.63l51.37-89,20.15,34.88H66.42l-8.29,14.36h90a3.17,3.17,0,0,0,2.55-1.22,3.11,3.11,0,0,0,.44-3.43L78.87,1.86A3.61,3.61,0,0,0,75.72,0a3.86,3.86,0,0,0-3.15,1.84L.43,126.72A3.82,3.82,0,0,0,0,128.34a3.23,3.23,0,0,0,3.52,3.31H30.59L9.52,168.1a3.33,3.33,0,0,0-.08,3.1A3.13,3.13,0,0,0,12.31,173Zm60-113.6L38.9,117.27H22.46L75.69,25.1l53.23,92.17H112.33L79,59.46a3.87,3.87,0,0,0-3.39-2A3.7,3.7,0,0,0,72.26,59.42Z" transform="translate(0 0)"/><path class="cls-2" d="M138.84,173h-9.07a3.26,3.26,0,0,1-2.75-1.59l-17.94-31.06h16.59l16,27.69a3.28,3.28,0,0,1-2.82,5Z" transform="translate(0 0)"/></svg>